<svg width="323" height="38" viewBox="0 0 323 38" fill="none" xmlns="http://www.w3.org/2000/svg">
<path fill-rule="evenodd" clip-rule="evenodd" d="M0 18.117V36.233H6.545C12.162 36.233 13.439 35.885 15.545 33.778C17.473 31.851 18 30.288 18 26.501C18 23.848 17.335 20.728 16.521 19.567C15.211 17.696 15.222 17.095 16.622 14.289C18.554 10.416 17.802 5.269 14.924 2.664C13.528 1.401 10.859 0.691 6.443 0.41L0 0V18.117ZM24.667 0.9C24.3 1.266 24 8.487 24 16.945C24 31.94 24.061 32.385 26.455 34.778C29.923 38.246 37.077 38.246 40.545 34.778C42.948 32.376 43 31.981 43 16.278V0.233H40H37V14.151C37 21.806 36.727 28.781 36.393 29.651C35.606 31.702 31.394 31.702 30.607 29.651C30.273 28.781 30 21.806 30 14.151C30 0.237 29.999 0.233 27.667 0.233C26.383 0.233 25.033 0.533 24.667 0.9ZM49 18.167V36.233H65H81V33.733V31.233H68.026H55.052L54.776 15.983L54.5 0.733L51.75 0.417L49 0.0999994V18.167ZM87.667 0.9C87.3 1.266 87 9.366 87 18.9V36.233H94.566H102.133L101.816 33.483C101.542 31.096 100.972 30.667 97.5 30.233L93.5 29.733L93.223 14.983C92.948 0.326 92.932 0.233 90.64 0.233C89.371 0.233 88.033 0.533 87.667 0.9ZM102.011 1.483C102.017 2.171 103.592 7.167 105.511 12.586C108.207 20.199 109 24.008 109 29.336V36.233H112H115V29.283C115 23.848 115.763 20.224 118.5 12.663C120.425 7.345 122 2.373 122 1.614C122 0.746999 120.885 0.233 119.004 0.233C116.193 0.233 115.905 0.605 114.332 6.261C113.411 9.577 112.339 11.939 111.951 11.511C111.563 11.083 110.479 8.371 109.543 5.483C108.003 0.737 107.559 0.233 104.92 0.233C103.245 0.233 102.005 0.766 102.011 1.483ZM144.735 0.830999C144.331 1.236 144 9.366 144 18.9V36.233H159.596C173.694 36.233 175.467 36.037 178.058 34.192C179.88 32.894 181.163 30.884 181.577 28.675C182.307 24.785 180.632 19.689 178.334 18.808C177.094 18.332 177.191 17.806 178.925 15.601C181.852 11.881 181.563 7.895 178.085 3.999L175.169 0.733L160.32 0.415C152.152 0.239 145.139 0.426999 144.735 0.830999ZM192.535 2.425C192.242 3.694 190.848 10.808 189.437 18.233C188.026 25.658 186.626 32.746 186.327 33.983C185.852 35.948 186.174 36.233 188.873 36.233C192.011 36.233 192.323 35.767 193.219 29.733C193.432 28.298 194.413 27.646 196.688 27.425C199.749 27.128 199.884 27.276 200.544 31.675C201.201 36.06 201.357 36.233 204.633 36.233C207.662 36.233 207.977 35.984 207.484 33.983C207.18 32.746 205.484 24.758 203.715 16.233L200.5 0.733L196.784 0.425C193.599 0.16 192.991 0.446999 192.535 2.425ZM213 18.233V36.233H216C218.989 36.233 219 36.212 219 30.424C219 27.193 219.585 23.815 220.319 22.811C221.492 21.208 221.859 21.826 223.63 28.37C225.611 35.692 225.642 35.735 229.258 36.04L232.893 36.347L229.307 25.638L225.721 14.929L228.86 8.562C230.587 5.06 232 1.725 232 1.151C232 0.576 230.628 0.247 228.952 0.42C226.22 0.7 225.546 1.514 222.47 8.233L219.037 15.733L219.018 7.983L219 0.233H216H213V18.233ZM238.667 0.9C238.3 1.266 238 9.366 238 18.9V36.233H254.833C264.092 36.233 271.918 35.982 272.225 35.675C272.531 35.368 272.554 34.243 272.275 33.175C271.803 31.37 270.788 31.233 257.883 31.233H244V26.233V21.233H257.5H271V18.233V15.233H257.5H244V10.761V6.289L257.75 6.011L271.5 5.733L271.816 2.983L272.133 0.233H255.733C246.713 0.233 239.033 0.533 238.667 0.9ZM279 18.233V36.233H282H285V29.15C285 20.326 286.481 20.349 289.421 29.217C291.178 34.52 291.997 35.722 294.263 36.328C295.763 36.729 297.218 36.69 297.495 36.241C297.773 35.792 296.896 32.162 295.548 28.176C293.104 20.954 293.102 20.918 295.048 18.445C297.003 15.959 297.745 8.339 296.379 4.778C295.358 2.117 290.453 0.233 284.55 0.233H279V18.233ZM303 1.692C303 2.495 304.575 7.557 306.5 12.942C309.186 20.459 309.999 24.301 310 29.483V36.233H313H316L316.004 29.483C316.008 24.426 316.886 20.128 319.504 12.347C321.427 6.635 323 1.544 323 1.034C323 0.523999 321.557 0.247 319.794 0.42C316.8 0.712 316.49 1.112 315.097 6.483C314.277 9.646 313.315 12.233 312.961 12.233C312.607 12.233 311.499 9.533 310.5 6.233C308.835 0.733 308.446 0.233 305.842 0.233C304.018 0.233 303 0.755999 303 1.692ZM9.819 6.1C10.646 6.624 11.019 8.392 10.819 10.835C10.56 13.998 10.076 14.793 8.25 15.053C6.171 15.348 6 14.988 6 10.303C6 5.202 6.878 4.235 9.819 6.1ZM289.429 6.804C292.465 9.841 290.718 17.233 286.965 17.233C285.257 17.233 285 16.534 285 11.9C285 5.017 286.228 3.604 289.429 6.804ZM173.429 7.804C174.293 8.669 175 9.987 175 10.733C175 14.308 172.109 15.233 160.929 15.233H150V10.733V6.233H160.929C169.53 6.233 172.192 6.568 173.429 7.804ZM126.571 9.804C123.271 13.105 125.188 19.206 130.006 20.735C131.103 21.083 132 22.237 132 23.3C132 25.837 130.379 25.79 129.71 23.233C128.919 20.206 125 20.563 125 23.662C125 28.375 130.284 30.757 135.066 28.198C136.483 27.439 137 26.094 137 23.164C137 19.654 136.572 18.913 133.5 17.1C131.575 15.965 130 14.405 130 13.634C130 11.473 131.7 11.977 132.312 14.32C133.043 17.114 136.396 16.443 136.827 13.418C137.006 12.156 136.614 10.473 135.954 9.678C134.359 7.756 128.542 7.834 126.571 9.804ZM198.403 18.483C199.026 21.878 198.885 22.233 196.914 22.233C194.956 22.233 194.8 21.857 195.358 18.483C195.699 16.421 196.011 13.833 196.052 12.733L196.127 10.733L196.921 12.733C197.358 13.833 198.025 16.421 198.403 18.483ZM11.374 23.343C12.815 27.458 11.431 31.233 8.481 31.233C6.137 31.233 6 30.926 6 25.663C6 20.474 6.152 20.116 8.23 20.413C9.57 20.605 10.824 21.775 11.374 23.343ZM174.429 22.804C176.647 25.023 176.379 27.854 173.777 29.676C172.1 30.851 168.914 31.233 160.777 31.233H150V26.233V21.233H161.429C170.485 21.233 173.183 21.559 174.429 22.804Z" fill="#808080"/>
</svg>
